<?xml version="1.0" standalone="no"?>
<!DOCTYPE svg PUBLIC "-//W3C//DTD SVG 1.0//EN" "http://www.w3.org/TR/2001/REC-SVG-20010904/DTD/svg10.dtd">
<svg xmlns="http://www.w3.org/2000/svg" xmlns:xlink="http://www.w3.org/1999/xlink" id="body_1" width="67" height="50">

<g transform="matrix(0.10060787 0 0 0.10060787 8.500002 -0)">
	<g>
        <path d="M90.736 230.126C 86.987 184.29701 69.242004 142.48401 41.998 108.59901C 18.165 143.722 3.278 185.3 0 230.126L0 230.126L90.736 230.126z" stroke="none" fill="#000000" fill-rule="nonzero" />
        <path d="M222.799 230.126L222.799 0.401C 165.883 6.223 114.769 31.31 75.732 68.858C 113.631 112.763 138.034 168.67401 142.116 230.126L142.116 230.126L222.799 230.126z" stroke="none" fill="#000000" fill-rule="nonzero" />
        <path d="M496.979 230.126C 493.7 185.3 478.816 143.72202 454.98102 108.59901C 427.73602 142.48502 409.99002 184.297 406.24402 230.126L406.24402 230.126L496.979 230.126z" stroke="none" fill="#000000" fill-rule="nonzero" />
        <path d="M274.18 230.126L354.86398 230.126C 358.943 168.675 383.34497 112.76401 421.24597 68.858C 382.209 31.31 331.096 6.223 274.18 0.401L274.18 0.401L274.18 230.126z" stroke="none" fill="#000000" fill-rule="nonzero" />
        <path d="M1.52 281.507C 6.722 320.75897 20.822 357.188 42.063 388.466C 66.349 358.24402 82.991 321.596 88.962 281.50702L88.962 281.50702L1.52 281.50702L1.52 281.507z" stroke="none" fill="#000000" fill-rule="nonzero" />
        <path d="M356.1 281.507L274.18 281.507L274.18 496.578C 331.112 490.758 382.26 465.653 421.312 428.07C 386.392 387.678 362.807 337.202 356.1 281.507z" stroke="none" fill="#000000" fill-rule="nonzero" />
        <path d="M408.018 281.507C 413.988 321.59598 430.629 358.244 454.91602 388.466C 476.15503 357.188 490.255 320.759 495.45602 281.50702L495.45602 281.50702L408.018 281.50702L408.018 281.507z" stroke="none" fill="#000000" fill-rule="nonzero" />
        <path d="M222.799 281.507L140.87799 281.507C 134.17099 337.202 110.58899 387.67798 75.66599 428.07C 114.72099 465.653 165.866 490.758 222.79898 496.578L222.79898 496.578L222.79898 281.507L222.799 281.507z" stroke="none" fill="#000000" fill-rule="nonzero" />
	</g>
</g>
</svg>