<?xml version="1.0" standalone="no"?>
<!DOCTYPE svg PUBLIC "-//W3C//DTD SVG 1.0//EN" "http://www.w3.org/TR/2001/REC-SVG-20010904/DTD/svg10.dtd">
<svg xmlns="http://www.w3.org/2000/svg" xmlns:xlink="http://www.w3.org/1999/xlink" id="body_1" width="50" height="50">

<g transform="matrix(0.5 0 0 0.5 0 0)">
	<g>
        <path d="M40.5 -0.5C 47.5 -0.5 54.5 -0.5 61.5 -0.5C 69.4604 1.9338 76.627 5.9338 83 11.5C 82.8355 19.4793 82.6688 27.4793 82.5 35.5C 78.164 36.6339 73.8307 36.6339 69.5 35.5C 66.5218 28.8768 63.0218 22.5435 59 16.5C 53.191 10.1803 47.0244 4.51362 40.5 -0.5z" stroke="none" fill="#000000" fill-rule="nonzero" fill-opacity="0.87058824" />
	</g>
	<g>
        <path d="M34.5 0.5C 49.3224 7.39835 60.1558 18.3984 67 33.5C 67.49 34.7932 67.6567 36.1266 67.5 37.5C 62.4185 38.0197 57.4185 39.0197 52.5 40.5C 49.2055 37.2722 46.3721 33.6056 44 29.5C 35.9185 20.9145 26.0852 15.5812 14.5 13.5C 20.2054 7.64983 26.8721 3.31649 34.5 0.5z" stroke="none" fill="#000000" fill-rule="nonzero" fill-opacity="0.8784314" />
	</g>
	<g>
        <path d="M85.5 15.5C 87.0174 15.5106 88.1841 16.1772 89 17.5C 93.4511 22.7702 96.2844 28.7702 97.5 35.5C 93.1667 35.5 88.8333 35.5 84.5 35.5C 84.287 28.7895 84.6204 22.1228 85.5 15.5z" stroke="none" fill="#000000" fill-rule="nonzero" fill-opacity="0.73333335" />
	</g>
	<g>
        <path d="M-0.5 61.5C -0.5 53.5 -0.5 45.5 -0.5 37.5C 2.17607 30.4844 5.67607 23.8177 10 17.5C 28.3013 16.7337 41.1346 24.7337 48.5 41.5C 31.87 45.815 16.87 53.315 3.5 64C 2.55198 64.4828 1.55198 64.6495 0.5 64.5C 0.737305 63.209 0.403972 62.209 -0.5 61.5z" stroke="none" fill="#000000" fill-rule="nonzero" fill-opacity="0.9137255" />
	</g>
	<g>
        <path d="M78.5 37.5C 80.1667 37.5 81.8333 37.5 83.5 37.5C 84.0562 49.3522 88.3896 59.5189 96.5 68C 92.6227 78.3836 85.956 86.5503 76.5 92.5C 76.1667 91.6667 75.8333 90.8333 75.5 90C 77.1742 82.5698 77.6742 75.0698 77 67.5C 75.8091 57.6844 73.9758 48.0177 71.5 38.5C 74.0593 38.8016 76.3926 38.4682 78.5 37.5z" stroke="none" fill="#000000" fill-rule="nonzero" fill-opacity="0.84313726" />
	</g>
	<g>
        <path d="M99.5 37.5C 99.5 45.5 99.5 53.5 99.5 61.5C 98.596 62.209 98.2627 63.209 98.5 64.5C 97.1779 64.67 96.0113 64.3366 95 63.5C 88.7669 55.9685 85.6002 47.3019 85.5 37.5C 90.1667 37.5 94.8333 37.5 99.5 37.5z" stroke="none" fill="#000000" fill-rule="nonzero" fill-opacity="0.8352941" />
	</g>
	<g>
        <path d="M61.5 99.5C 57.8333 99.5 54.1667 99.5 50.5 99.5C 58.953 81.1074 59.6197 62.4407 52.5 43.5C 57.8188 40.419 63.4855 39.419 69.5 40.5C 75.8043 58.1739 76.971 76.1739 73 94.5C 69.124 96.284 65.2907 97.9507 61.5 99.5z" stroke="none" fill="#000000" fill-rule="nonzero" fill-opacity="0.87058824" />
	</g>
	<g>
        <path d="M47.5 99.5C 44.1667 99.5 40.8333 99.5 37.5 99.5C 20.9824 94.4868 9.31574 83.9868 2.5 68C 16.2982 55.5205 32.2982 47.5205 50.5 44C 58.4894 62.9526 57.4894 81.4526 47.5 99.5zM11.5 69.5C 13.969 72.1438 16.3024 74.9772 18.5 78C 14.2905 76.9393 11.9572 74.106 11.5 69.5zM25.5 84.5C 29.7145 85.9406 33.7145 87.9406 37.5 90.5C 37.1667 90.8333 36.8333 91.1667 36.5 91.5C 31.9677 90.2596 28.301 87.9263 25.5 84.5z" stroke="none" fill="#000000" fill-rule="nonzero" fill-opacity="0.90588236" />
	</g>
</g>
</svg>