<?xml version="1.0" standalone="no"?>
<!DOCTYPE svg PUBLIC "-//W3C//DTD SVG 1.0//EN" "http://www.w3.org/TR/2001/REC-SVG-20010904/DTD/svg10.dtd">
<svg xmlns="http://www.w3.org/2000/svg" xmlns:xlink="http://www.w3.org/1999/xlink" id="body_1" width="50" height="50">

<g transform="matrix(0.103103206 0 0 0.103103206 0 0)">
	<g>
		<g>
			<g>
                <path d="M118.505 115.332L125.443 115.332C 135.987 115.332 144.534 106.782 144.534 96.241L144.534 96.241L144.534 43.558L144.534 23.852C 144.534 13.310999 135.987 4.761999 125.44299 4.761999L125.44299 4.761999L118.50499 4.761999C 107.96199 4.761999 99.41499 13.310999 99.41499 23.852L99.41499 23.852L99.41499 43.559L99.41499 96.241C 99.415 106.782 107.962 115.332 118.505 115.332z" stroke="none" fill="#000000" fill-rule="nonzero" />
                <path d="M363.373 114.859L370.31097 114.859C 380.85397 114.859 389.40097 106.31 389.40097 95.768005L389.40097 95.768005L389.40097 38.558006L389.40097 23.378006C 389.40097 12.838006 380.85397 4.2890053 370.31097 4.2890053L370.31097 4.2890053L363.373 4.2890053C 352.82797 4.2890053 344.28098 12.838005 344.28098 23.378006L344.28098 23.378006L344.28098 38.558006L344.28098 95.767006C 344.283 106.31 352.83 114.859 363.373 114.859z" stroke="none" fill="#000000" fill-rule="nonzero" />
                <path d="M453.916 43.558L404.92 43.558L404.92 100.767C 404.92 119.851 389.39502 130.377 370.31302 130.377L370.31302 130.377L363.37503 130.377C 344.29102 130.377 328.76602 114.851 328.76602 95.767L328.76602 95.767L328.76602 43.558L160.053 43.558L160.053 96.24C 160.053 115.324 144.528 130.85 125.44399 130.85L125.44399 130.85L118.50599 130.85C 99.42299 130.85 83.89799 115.324005 83.89799 96.240005L83.89799 96.240005L83.89799 43.558L31.036 43.558C 13.923 43.558 0 57.481 0 74.595L0 74.595L0 449.625C 0 466.739 13.923 480.662 31.036 480.662L31.036 480.662L453.91602 480.662C 471.02902 480.662 484.95102 466.73898 484.95102 449.625L484.95102 449.625L484.95102 74.595C 484.953 57.482 471.029 43.558 453.916 43.558zM453.916 449.625L31.037 449.625L31.036001 166.41199L453.922 166.41199L453.938 449.624C 453.936 449.624 453.93 449.625 453.916 449.625z" stroke="none" fill="#000000" fill-rule="nonzero" />
                <path d="M258.498 261.41L314.22498 261.41C 316.434 261.41 318.22498 259.61902 318.22498 257.41L318.22498 257.41L318.22498 209.155C 318.22498 206.946 316.434 205.155 314.22498 205.155L314.22498 205.155L258.498 205.155C 256.28897 205.155 254.49799 206.946 254.49799 209.155L254.49799 209.155L254.49799 257.41C 254.498 259.619 256.289 261.41 258.498 261.41z" stroke="none" fill="#000000" fill-rule="nonzero" />
                <path d="M349.443 261.41L405.16998 261.41C 407.379 261.41 409.16998 259.61902 409.16998 257.41L409.16998 257.41L409.16998 209.155C 409.16998 206.946 407.379 205.155 405.16998 205.155L405.16998 205.155L349.443 205.155C 347.23398 205.155 345.443 206.946 345.443 209.155L345.443 209.155L345.443 257.41C 345.443 259.619 347.234 261.41 349.443 261.41z" stroke="none" fill="#000000" fill-rule="nonzero" />
                <path d="M76.611 340.41L132.337 340.41C 134.546 340.41 136.337 338.61902 136.337 336.41L136.337 336.41L136.337 288.154C 136.337 285.94498 134.546 284.154 132.337 284.154L132.337 284.154L76.611 284.154C 74.402 284.154 72.611 285.94498 72.611 288.154L72.611 288.154L72.611 336.41C 72.611 338.619 74.402 340.41 76.611 340.41z" stroke="none" fill="#000000" fill-rule="nonzero" />
                <path d="M167.555 340.41L223.28099 340.41C 225.48999 340.41 227.28099 338.61902 227.28099 336.41L227.28099 336.41L227.28099 288.154C 227.28099 285.94498 225.48999 284.154 223.28099 284.154L223.28099 284.154L167.555 284.154C 165.346 284.154 163.555 285.94498 163.555 288.154L163.555 288.154L163.555 336.41C 163.555 338.619 165.346 340.41 167.555 340.41z" stroke="none" fill="#000000" fill-rule="nonzero" />
                <path d="M258.499 340.41L314.225 340.41C 316.43402 340.41 318.225 338.61902 318.225 336.41L318.225 336.41L318.225 288.154C 318.225 285.94498 316.43402 284.154 314.225 284.154L314.225 284.154L258.499 284.154C 256.28998 284.154 254.499 285.94498 254.499 288.154L254.499 288.154L254.499 336.41C 254.499 338.619 256.29 340.41 258.499 340.41z" stroke="none" fill="#000000" fill-rule="nonzero" />
                <path d="M349.443 340.41L405.16998 340.41C 407.379 340.41 409.16998 338.61902 409.16998 336.41L409.16998 336.41L409.16998 288.154C 409.16998 285.94498 407.379 284.154 405.16998 284.154L405.16998 284.154L349.443 284.154C 347.23398 284.154 345.443 285.94498 345.443 288.154L345.443 288.154L345.443 336.41C 345.443 338.619 347.234 340.41 349.443 340.41z" stroke="none" fill="#000000" fill-rule="nonzero" />
                <path d="M132.337 363.154L76.612 363.154C 74.403 363.154 72.612 364.94498 72.612 367.154L72.612 367.154L72.612 415.41C 72.612 417.61902 74.403 419.41 76.612 419.41L76.612 419.41L132.338 419.41C 134.547 419.41 136.338 417.61902 136.338 415.41L136.338 415.41L136.338 367.154C 136.337 364.945 134.546 363.154 132.337 363.154z" stroke="none" fill="#000000" fill-rule="nonzero" />
                <path d="M223.282 363.154L167.556 363.154C 165.347 363.154 163.556 364.94498 163.556 367.154L163.556 367.154L163.556 415.41C 163.556 417.61902 165.347 419.41 167.556 419.41L167.556 419.41L223.282 419.41C 225.491 419.41 227.282 417.61902 227.282 415.41L227.282 415.41L227.282 367.154C 227.282 364.945 225.491 363.154 223.282 363.154z" stroke="none" fill="#000000" fill-rule="nonzero" />
                <path d="M314.227 363.154L258.5 363.154C 256.291 363.154 254.5 364.94498 254.5 367.154L254.5 367.154L254.5 415.41C 254.5 417.61902 256.291 419.41 258.5 419.41L258.5 419.41L314.227 419.41C 316.436 419.41 318.227 417.61902 318.227 415.41L318.227 415.41L318.227 367.154C 318.227 364.945 316.436 363.154 314.227 363.154z" stroke="none" fill="#000000" fill-rule="nonzero" />
                <path d="M405.17 363.154L349.44302 363.154C 347.234 363.154 345.44302 364.94498 345.44302 367.154L345.44302 367.154L345.44302 415.41C 345.44302 417.61902 347.234 419.41 349.44302 419.41L349.44302 419.41L405.17 419.41C 407.37903 419.41 409.17 417.61902 409.17 415.41L409.17 415.41L409.17 367.154C 409.17 364.945 407.379 363.154 405.17 363.154z" stroke="none" fill="#000000" fill-rule="nonzero" />
			</g>
		</g>
	</g>
	<g>
	</g>
	<g>
	</g>
	<g>
	</g>
	<g>
	</g>
	<g>
	</g>
	<g>
	</g>
	<g>
	</g>
	<g>
	</g>
	<g>
	</g>
	<g>
	</g>
	<g>
	</g>
	<g>
	</g>
	<g>
	</g>
	<g>
	</g>
	<g>
	</g>
</g>
</svg>