<?xml version="1.0" standalone="no"?>
<!DOCTYPE svg PUBLIC "-//W3C//DTD SVG 1.0//EN" "http://www.w3.org/TR/2001/REC-SVG-20010904/DTD/svg10.dtd">
<svg xmlns="http://www.w3.org/2000/svg" xmlns:xlink="http://www.w3.org/1999/xlink" id="body_1" width="44" height="53">

<g transform="matrix(0.052757792 0 0 0.052757792 -0 0.24220477)">
	<g transform="matrix(0.1 0 -0 -0.1 0 1000)">
        <path d="M2353 9994C 2340 9991 2330 9984 2330 9979C 2330 9974 2323 9970 2314 9970C 2293 9970 2170 9847 2170 9826C 2170 9817 2166 9810 2161 9810C 2145 9810 2118 9665 2119 9580C 2120 9480 2131 9370 2141 9370C 2146 9370 2150 9350 2150 9326C 2150 9301 2155 9278 2160 9275C 2166 9272 2170 9256 2170 9239C 2170 9223 2175 9210 2180 9210C 2186 9210 2190 9197 2190 9180C 2190 9164 2195 9150 2200 9150C 2206 9150 2210 9139 2210 9126C 2210 9112 2215 9098 2220 9095C 2226 9092 2230 9081 2230 9071C 2230 9050 2252 9000 2263 9000C 2267 9000 2270 8989 2270 8976C 2270 8962 2275 8948 2280 8945C 2286 8942 2290 8930 2290 8919C 2290 8909 2295 8900 2300 8900C 2306 8900 2310 8891 2310 8880C 2310 8869 2315 8860 2320 8860C 2326 8860 2330 8851 2330 8840C 2330 8829 2335 8820 2340 8820C 2346 8820 2350 8813 2350 8805C 2350 8791 2386 8718 2415 8671C 2421 8662 2439 8633 2455 8605C 2471 8578 2492 8546 2502 8536C 2512 8525 2520 8511 2520 8505C 2520 8499 2529 8488 2540 8480C 2551 8472 2560 8459 2560 8450C 2560 8441 2569 8428 2580 8420C 2591 8412 2600 8400 2600 8394C 2600 8388 2614 8369 2630 8352C 2647 8334 2660 8318 2660 8315C 2660 8308 2689 8274 2728 8234C 2745 8216 2760 8198 2760 8195C 2760 8179 2921 8014 2995 7955C 3022 7933 3059 7900 3078 7883C 3096 7865 3115 7850 3120 7850C 3125 7850 3140 7839 3153 7826C 3166 7813 3186 7797 3198 7791C 3228 7775 3226 7766 3185 7750C 3166 7742 3150 7733 3150 7728C 3150 7724 3142 7720 3132 7720C 3122 7720 3108 7711 3100 7700C 3092 7689 3078 7680 3068 7680C 3058 7680 3050 7676 3050 7670C 3050 7665 3042 7660 3032 7660C 3023 7660 2971 7631 2918 7595C 2864 7559 2816 7530 2810 7530C 2805 7530 2800 7527 2800 7523C 2800 7518 2783 7504 2762 7490C 2742 7476 2718 7457 2709 7448C 2700 7438 2687 7430 2680 7430C 2674 7430 2655 7417 2640 7400C 2625 7384 2608 7370 2602 7370C 2597 7370 2574 7352 2551 7330C 2529 7308 2505 7290 2500 7290C 2494 7290 2490 7286 2490 7280C 2490 7275 2485 7270 2480 7270C 2474 7270 2451 7253 2429 7233C 2407 7213 2380 7189 2369 7181C 2357 7172 2320 7138 2286 7105C 2252 7072 2209 7033 2190 7018C 2145 6983 1920 6766 1920 6757C 1920 6753 1900 6729 1875 6703C 1850 6676 1794 6617 1750 6570C 1706 6524 1670 6482 1670 6478C 1670 6473 1650 6451 1626 6427C 1603 6404 1579 6378 1574 6368C 1569 6359 1548 6334 1528 6311C 1507 6289 1490 6266 1490 6260C 1490 6255 1486 6250 1480 6250C 1475 6250 1470 6245 1470 6239C 1470 6233 1457 6215 1440 6200C 1424 6185 1410 6168 1410 6163C 1410 6158 1394 6137 1375 6116C 1356 6095 1340 6074 1340 6069C 1340 6065 1330 6050 1318 6038C 1289 6008 1230 5933 1230 5926C 1230 5922 1162 5827 1115 5765C 1107 5755 1100 5739 1100 5730C 1100 5722 1091 5708 1080 5700C 1069 5692 1060 5679 1060 5670C 1060 5661 1051 5648 1040 5640C 1029 5632 1020 5619 1020 5610C 1020 5601 1011 5588 1000 5580C 989 5572 980 5560 980 5553C 980 5546 976 5540 970 5540C 965 5540 960 5533 960 5525C 960 5517 956 5510 950 5510C 945 5510 940 5505 940 5499C 940 5493 927 5469 910 5445C 894 5421 880 5399 880 5396C 880 5393 867 5371 850 5347C 834 5322 820 5298 820 5292C 820 5286 816 5280 812 5278C 807 5277 790 5250 774 5220C 713 5110 687 5065 679 5055C 674 5050 670 5038 670 5028C 670 5018 666 5010 660 5010C 655 5010 650 5001 650 4990C 650 4979 646 4970 640 4970C 635 4970 630 4961 630 4950C 630 4939 626 4930 620 4930C 615 4930 610 4921 610 4910C 610 4899 606 4890 600 4890C 595 4890 590 4881 590 4870C 590 4859 586 4850 580 4850C 575 4850 570 4841 570 4830C 570 4819 566 4810 560 4810C 555 4810 550 4801 550 4790C 550 4779 547 4770 543 4770C 534 4770 510 4721 510 4703C 510 4696 506 4690 500 4690C 495 4690 490 4684 490 4676C 490 4668 482 4645 471 4623C 461 4602 442 4563 430 4535C 418 4508 404 4477 399 4468C 394 4458 390 4443 390 4435C 390 4427 386 4420 382 4420C 377 4420 367 4397 360 4370C 353 4342 343 4320 338 4320C 334 4320 330 4314 330 4306C 330 4292 296 4200 279 4167C 274 4158 267 4129 263 4105C 260 4080 253 4060 249 4060C 244 4060 240 4047 240 4030C 240 4014 236 4000 230 4000C 225 4000 220 3984 220 3965C 220 3946 216 3930 210 3930C 205 3930 200 3919 200 3906C 200 3892 196 3878 190 3875C 185 3872 180 3856 180 3839C 180 3823 176 3810 170 3810C 165 3810 160 3795 160 3776C 160 3757 155 3738 150 3735C 144 3732 140 3713 140 3694C 140 3675 136 3660 130 3660C 125 3660 120 3642 120 3620C 120 3598 116 3580 111 3580C 103 3580 99 3562 84 3443C 81 3416 74 3391 69 3386C 64 3380 60 3355 60 3330C 60 3305 56 3280 51 3274C 40 3264 31 3179 24 3030C 22 2972 15 2916 9 2905C -7 2872 12 2320 30 2320C 34 2320 41 2292 44 2257C 52 2162 61 2106 71 2096C 76 2090 80 2071 80 2054C 80 2036 84 2018 90 2015C 96 2012 100 1998 100 1984C 100 1971 104 1952 109 1942C 114 1933 124 1904 132 1878C 139 1851 148 1830 152 1830C 156 1830 160 1817 160 1800C 160 1784 165 1770 170 1770C 176 1770 180 1759 180 1745C 180 1731 185 1720 190 1720C 196 1720 200 1709 200 1695C 200 1681 205 1670 210 1670C 216 1670 220 1661 220 1650C 220 1639 225 1630 230 1630C 236 1630 240 1621 240 1610C 240 1599 245 1590 250 1590C 256 1590 260 1583 260 1574C 260 1554 290 1490 307 1472C 314 1465 320 1455 320 1450C 320 1445 326 1435 333 1428C 339 1421 356 1395 369 1370C 383 1345 402 1318 412 1309C 422 1300 430 1289 430 1284C 430 1279 440 1263 453 1249C 465 1234 485 1209 498 1194C 601 1063 778 887 874 820C 886 812 906 795 920 783C 934 770 948 760 952 760C 955 760 965 754 973 746C 1000 719 1063 680 1079 680C 1088 680 1101 671 1108 660C 1115 649 1127 640 1135 640C 1143 640 1150 636 1150 630C 1150 625 1157 620 1165 620C 1173 620 1180 616 1180 610C 1180 605 1187 600 1195 600C 1203 600 1210 596 1210 590C 1210 585 1216 580 1223 580C 1241 580 1290 556 1290 548C 1290 543 1299 540 1310 540C 1321 540 1330 537 1330 533C 1330 524 1379 500 1397 500C 1404 500 1410 496 1410 490C 1410 485 1419 480 1430 480C 1441 480 1450 476 1450 470C 1450 465 1459 460 1470 460C 1481 460 1490 457 1490 452C 1490 445 1508 437 1580 409C 1599 402 1630 388 1648 378C 1666 368 1689 360 1698 360C 1708 360 1720 356 1725 352C 1731 348 1753 338 1775 331C 1797 324 1824 315 1835 310C 1886 288 1980 260 2023 254C 2049 250 2070 243 2070 239C 2070 234 2088 230 2110 230C 2132 230 2150 226 2150 220C 2150 215 2168 210 2190 210C 2212 210 2230 206 2230 200C 2230 195 2248 190 2270 190C 2292 190 2310 186 2310 180C 2310 175 2328 170 2350 170C 2372 170 2390 166 2390 160C 2390 155 2410 150 2434 150C 2459 150 2482 146 2485 140C 2488 135 2511 130 2536 130C 2560 130 2580 126 2580 120C 2580 114 2607 110 2640 110C 2673 110 2700 106 2700 100C 2700 94 2727 90 2760 90C 2793 90 2820 86 2820 80C 2820 74 2852 70 2895 70C 2938 70 2970 66 2970 60C 2970 54 3007 50 3060 50C 3110 50 3150 46 3150 41C 3150 35 3196 29 3253 26C 3309 23 3454 16 3575 10C 3868 -5 5198 1 5208 17C 5212 24 5256 31 5310 34C 5496 45 5560 52 5560 61C 5560 66 5589 70 5624 70C 5660 70 5692 75 5695 80C 5698 86 5726 90 5756 90C 5786 90 5810 95 5810 100C 5810 106 5832 110 5859 110C 5887 110 5912 115 5915 120C 5918 126 5941 130 5966 130C 5990 130 6010 135 6010 140C 6010 146 6028 150 6049 150C 6071 150 6092 155 6095 160C 6098 166 6119 170 6141 170C 6162 170 6180 175 6180 180C 6180 186 6195 190 6214 190C 6233 190 6252 195 6255 200C 6258 206 6274 210 6290 210C 6306 210 6322 215 6325 220C 6328 225 6347 230 6366 230C 6385 230 6400 234 6400 239C 6400 244 6425 251 6455 255C 6485 258 6512 266 6515 271C 6519 276 6532 280 6545 280C 6558 280 6572 285 6575 290C 6578 296 6588 300 6596 300C 6604 300 6630 309 6652 320C 6675 331 6699 340 6705 340C 6711 340 6735 349 6758 360C 6780 371 6806 380 6815 380C 6823 380 6830 385 6830 390C 6830 396 6839 400 6850 400C 6861 400 6870 405 6870 410C 6870 416 6879 420 6890 420C 6901 420 6910 425 6910 430C 6910 436 6916 440 6923 440C 6935 440 7100 519 7110 530C 7113 533 7138 546 7165 560C 7193 574 7222 593 7231 602C 7240 612 7254 620 7261 620C 7269 620 7282 629 7290 640C 7298 651 7312 660 7322 660C 7332 660 7340 664 7340 669C 7340 674 7350 682 7362 686C 7396 696 7615 870 7654 918C 7660 925 7703 971 7750 1019C 7797 1067 7846 1121 7860 1140C 7874 1158 7891 1179 7897 1186C 7904 1193 7910 1203 7910 1208C 7910 1214 7914 1220 7918 1222C 7928 1226 8020 1363 8040 1405C 8048 1422 8061 1441 8068 1448C 8074 1455 8080 1470 8080 1481C 8080 1491 8085 1500 8090 1500C 8096 1500 8100 1509 8100 1520C 8100 1531 8105 1540 8110 1540C 8116 1540 8120 1549 8120 1559C 8120 1570 8124 1582 8130 1585C 8136 1588 8140 1600 8140 1611C 8140 1621 8145 1630 8150 1630C 8156 1630 8160 1639 8160 1649C 8160 1660 8165 1672 8170 1675C 8176 1678 8180 1692 8180 1706C 8180 1719 8185 1730 8190 1730C 8196 1730 8200 1744 8200 1760C 8200 1777 8205 1790 8210 1790C 8216 1790 8220 1804 8220 1820C 8220 1837 8224 1850 8229 1850C 8234 1850 8240 1865 8243 1883C 8247 1900 8252 1931 8255 1950C 8259 1969 8265 1994 8270 2005C 8279 2026 8287 2071 8296 2150C 8299 2175 8305 2204 8310 2215C 8329 2256 8347 2752 8331 2785C 8325 2796 8318 2848 8316 2900C 8308 3055 8299 3134 8289 3144C 8284 3150 8280 3178 8280 3206C 8280 3235 8276 3262 8270 3265C 8265 3268 8260 3289 8260 3310C 8260 3331 8256 3352 8250 3355C 8245 3358 8240 3379 8240 3400C 8240 3421 8236 3442 8230 3445C 8225 3448 8220 3467 8220 3486C 8220 3505 8216 3520 8210 3520C 8205 3520 8200 3538 8200 3560C 8200 3582 8196 3600 8190 3600C 8185 3600 8180 3616 8180 3635C 8180 3654 8176 3670 8170 3670C 8165 3670 8160 3683 8160 3699C 8160 3716 8156 3732 8150 3735C 8145 3738 8140 3754 8140 3771C 8140 3787 8136 3800 8130 3800C 8125 3800 8120 3814 8120 3830C 8120 3847 8116 3860 8110 3860C 8105 3860 8100 3871 8100 3885C 8100 3899 8096 3910 8091 3910C 8087 3910 8080 3929 8077 3953C 8071 3993 8050 4055 8009 4147C 7998 4171 7990 4193 7990 4198C 7990 4203 7981 4225 7970 4248C 7959 4270 7950 4296 7950 4305C 7950 4313 7946 4320 7940 4320C 7935 4320 7930 4329 7930 4340C 7930 4351 7926 4360 7920 4360C 7915 4360 7910 4369 7910 4380C 7910 4391 7906 4400 7900 4400C 7895 4400 7890 4407 7890 4415C 7890 4423 7886 4438 7881 4448C 7876 4457 7839 4533 7799 4615C 7758 4698 7722 4767 7718 4768C 7713 4770 7710 4780 7710 4791C 7710 4801 7706 4810 7700 4810C 7695 4810 7690 4819 7690 4830C 7690 4841 7686 4850 7681 4850C 7676 4850 7669 4864 7665 4880C 7661 4897 7655 4910 7652 4910C 7648 4910 7638 4925 7631 4942C 7623 4960 7599 5003 7578 5038C 7557 5072 7540 5105 7540 5110C 7540 5116 7536 5120 7531 5120C 7526 5120 7517 5134 7510 5150C 7503 5167 7494 5180 7489 5180C 7484 5180 7480 5188 7480 5198C 7480 5208 7471 5222 7460 5230C 7449 5238 7440 5252 7440 5262C 7440 5272 7436 5280 7430 5280C 7425 5280 7420 5286 7420 5293C 7420 5300 7412 5315 7403 5326C 7393 5336 7379 5357 7371 5373C 7363 5388 7353 5400 7348 5400C 7344 5400 7340 5406 7340 5413C 7340 5420 7331 5436 7320 5448C 7309 5460 7300 5474 7300 5480C 7300 5485 7296 5490 7290 5490C 7285 5490 7280 5497 7280 5505C 7280 5513 7276 5520 7270 5520C 7265 5520 7260 5527 7260 5535C 7260 5543 7256 5550 7252 5550C 7247 5550 7235 5568 7225 5590C 7215 5612 7204 5630 7201 5630C 7197 5630 7184 5648 7170 5670C 7156 5692 7142 5710 7138 5710C 7133 5710 7130 5716 7130 5724C 7130 5731 7117 5751 7100 5768C 7084 5786 7070 5803 7070 5807C 7070 5812 7056 5829 7040 5847C 7023 5865 7010 5882 7010 5885C 7010 5889 7004 5897 6998 5904C 6991 5911 6974 5932 6960 5950C 6946 5969 6920 5998 6903 6016C 6885 6035 6870 6054 6870 6060C 6870 6066 6860 6082 6848 6095C 6835 6108 6820 6125 6815 6132C 6809 6139 6794 6159 6781 6175C 6736 6234 6664 6315 6588 6393C 6545 6436 6510 6476 6510 6482C 6510 6496 6085 6920 6071 6920C 6065 6920 6027 6953 5987 6993C 5913 7065 5828 7140 5787 7169C 5775 7177 5752 7197 5735 7212C 5719 7227 5696 7243 5685 7246C 5674 7250 5653 7266 5639 7281C 5624 7297 5607 7310 5601 7310C 5595 7310 5577 7324 5562 7340C 5546 7357 5528 7370 5521 7370C 5515 7370 5510 7373 5510 7378C 5510 7382 5492 7396 5470 7410C 5448 7424 5430 7438 5430 7442C 5430 7447 5423 7450 5415 7450C 5407 7450 5400 7455 5400 7460C 5400 7466 5393 7470 5385 7470C 5377 7470 5370 7474 5370 7479C 5370 7484 5357 7493 5340 7500C 5324 7507 5310 7516 5310 7520C 5310 7524 5297 7533 5280 7540C 5264 7547 5250 7556 5250 7561C 5250 7566 5241 7570 5231 7570C 5220 7570 5210 7573 5208 7578C 5204 7588 5152 7622 5105 7645C 5083 7656 5064 7668 5062 7673C 5060 7677 5050 7680 5039 7680C 5029 7680 5020 7685 5020 7690C 5020 7696 5011 7700 5000 7700C 4989 7700 4980 7705 4980 7710C 4980 7716 4971 7720 4960 7720C 4949 7720 4940 7725 4940 7730C 4940 7736 4931 7740 4920 7740C 4909 7740 4900 7745 4900 7750C 4900 7756 4891 7760 4880 7760C 4869 7760 4860 7765 4860 7770C 4860 7776 4851 7780 4840 7780C 4829 7780 4820 7785 4820 7790C 4820 7796 4811 7800 4800 7800C 4789 7800 4780 7805 4780 7810C 4780 7816 4771 7820 4760 7820C 4749 7820 4740 7822 4740 7825C 4740 7827 4796 7886 4865 7956C 4934 8026 4990 8086 4990 8091C 4990 8095 5007 8117 5028 8139C 5048 8161 5079 8198 5095 8220C 5112 8242 5135 8274 5148 8289C 5160 8305 5170 8324 5170 8332C 5170 8339 5179 8352 5190 8360C 5201 8368 5210 8380 5210 8387C 5210 8394 5215 8400 5220 8400C 5226 8400 5230 8407 5230 8415C 5230 8423 5235 8430 5240 8430C 5246 8430 5250 8438 5250 8448C 5250 8458 5259 8472 5270 8480C 5281 8488 5290 8502 5290 8512C 5290 8522 5294 8530 5299 8530C 5304 8530 5313 8544 5320 8560C 5327 8577 5335 8590 5339 8590C 5342 8590 5351 8605 5359 8623C 5367 8640 5382 8667 5392 8682C 5411 8709 5515 8916 5559 9012C 5570 9038 5580 9068 5580 9079C 5580 9091 5585 9100 5590 9100C 5596 9100 5600 9111 5600 9125C 5600 9139 5605 9150 5610 9150C 5616 9150 5620 9164 5620 9180C 5620 9197 5625 9210 5630 9210C 5636 9210 5640 9219 5640 9229C 5640 9240 5645 9252 5650 9255C 5656 9258 5660 9274 5660 9291C 5660 9307 5665 9320 5670 9320C 5676 9320 5680 9336 5680 9355C 5680 9374 5685 9390 5690 9390C 5696 9390 5700 9404 5700 9420C 5700 9437 5705 9450 5710 9450C 5716 9450 5720 9468 5720 9490C 5720 9512 5725 9530 5730 9530C 5736 9530 5740 9552 5740 9579C 5740 9607 5745 9632 5750 9635C 5756 9639 5760 9692 5760 9760C 5760 9828 5756 9881 5750 9885C 5745 9888 5740 9898 5740 9907C 5740 9916 5724 9939 5704 9957L5704 9957L5667 9990L5486 9990C 5386 9990 5300 9986 5294 9981C 5289 9976 5260 9969 5230 9966C 5134 9957 5085 9948 5076 9939C 5070 9934 5049 9930 5029 9930C 5008 9930 4988 9926 4985 9920C 4982 9915 4963 9910 4944 9910C 4925 9910 4910 9906 4910 9900C 4910 9895 4892 9890 4870 9890C 4848 9890 4830 9886 4830 9880C 4830 9875 4815 9870 4796 9870C 4777 9870 4758 9866 4755 9860C 4752 9855 4736 9850 4719 9850C 4703 9850 4690 9846 4690 9840C 4690 9835 4675 9830 4656 9830C 4637 9830 4618 9826 4615 9820C 4612 9815 4596 9810 4579 9810C 4563 9810 4550 9806 4550 9800C 4550 9795 4535 9790 4516 9790C 4497 9790 4478 9786 4475 9780C 4472 9775 4453 9770 4434 9770C 4415 9770 4400 9766 4400 9762C 4400 9757 4372 9748 4338 9743C 4303 9737 4257 9727 4235 9720C 4213 9713 4180 9706 4162 9703C 4144 9700 4127 9694 4124 9689C 4121 9684 4104 9680 4085 9680C 4066 9680 4048 9676 4045 9670C 4042 9665 4021 9660 4000 9660C 3979 9660 3958 9656 3955 9650C 3951 9644 3892 9640 3810 9640C 3680 9640 3599 9650 3558 9671C 3548 9676 3529 9680 3515 9680C 3501 9680 3490 9685 3490 9690C 3490 9696 3479 9700 3465 9700C 3451 9700 3420 9709 3397 9720C 3374 9731 3338 9743 3318 9747C 3297 9750 3280 9756 3280 9761C 3280 9766 3271 9770 3261 9770C 3250 9770 3238 9775 3235 9780C 3232 9786 3218 9790 3204 9790C 3191 9790 3180 9795 3180 9800C 3180 9806 3171 9810 3160 9810C 3149 9810 3140 9815 3140 9820C 3140 9826 3131 9830 3120 9830C 3109 9830 3100 9835 3100 9840C 3100 9846 3091 9850 3081 9850C 3071 9850 3036 9864 3005 9880C 2974 9897 2939 9910 2929 9910C 2919 9910 2910 9915 2910 9920C 2910 9926 2901 9930 2891 9930C 2880 9930 2868 9935 2865 9940C 2862 9946 2848 9950 2835 9950C 2822 9950 2808 9955 2805 9960C 2802 9966 2789 9970 2776 9970C 2764 9970 2749 9975 2742 9982C 2730 9994 2400 10004 2353 9994zM4190 6000C 4190 5995 4200 5990 4213 5990C 4239 5990 4340 5892 4340 5866C 4340 5857 4345 5850 4350 5850C 4356 5850 4360 5786 4360 5679C 4360 5480 4360 5480 4444 5480C 4475 5480 4500 5476 4500 5470C 4500 5465 4518 5460 4539 5460C 4561 5460 4582 5456 4585 5450C 4588 5445 4604 5440 4621 5440C 4637 5440 4650 5436 4650 5430C 4650 5425 4664 5420 4680 5420C 4697 5420 4710 5416 4710 5410C 4710 5405 4717 5400 4725 5400C 4740 5400 4750 5396 4797 5372C 4810 5365 4827 5360 4835 5360C 4843 5360 4850 5356 4850 5351C 4850 5346 4864 5337 4880 5330C 4897 5323 4910 5314 4910 5309C 4910 5304 4915 5300 4920 5300C 4935 5300 5008 5251 5053 5210C 5128 5143 5220 5040 5220 5023C 5220 5016 5225 5010 5230 5010C 5236 5010 5240 5003 5240 4995C 5240 4987 5245 4980 5250 4980C 5256 4980 5260 4975 5260 4969C 5260 4964 5271 4934 5285 4904C 5299 4874 5310 4843 5310 4835C 5310 4827 5315 4820 5320 4820C 5326 4820 5330 4809 5330 4796C 5330 4782 5335 4768 5340 4765C 5356 4755 5352 4637 5334 4601C 5311 4554 5240 4486 5199 4472C 5156 4458 5074 4456 5065 4470C 5062 4476 5052 4480 5043 4480C 5019 4480 4920 4582 4920 4607C 4920 4619 4916 4632 4910 4635C 4905 4638 4900 4652 4900 4666C 4900 4679 4896 4690 4890 4690C 4885 4690 4880 4697 4880 4705C 4880 4724 4860 4760 4838 4781C 4828 4790 4820 4801 4820 4806C 4820 4820 4774 4870 4761 4870C 4755 4870 4738 4883 4723 4898C 4707 4913 4673 4936 4645 4949C 4618 4962 4587 4976 4578 4981C 4568 4986 4551 4990 4541 4990C 4530 4990 4518 4995 4515 5000C 4512 5006 4496 5010 4480 5010C 4464 5010 4448 5015 4445 5020C 4442 5026 4421 5030 4399 5030L4399 5030L4360 5030L4360 4545L4360 4060L4388 4055C 4424 4047 4488 4031 4525 4019C 4542 4014 4577 4007 4603 4004C 4629 4000 4650 3993 4650 3989C 4650 3984 4664 3980 4680 3980C 4697 3980 4710 3976 4710 3970C 4710 3965 4724 3960 4740 3960C 4757 3960 4770 3956 4770 3950C 4770 3945 4779 3940 4790 3940C 4801 3940 4810 3936 4810 3930C 4810 3925 4819 3920 4829 3920C 4840 3920 4852 3916 4855 3910C 4858 3905 4870 3900 4881 3900C 4891 3900 4900 3896 4900 3890C 4900 3885 4909 3880 4920 3880C 4931 3880 4940 3876 4940 3870C 4940 3865 4947 3860 4955 3860C 4963 3860 4970 3857 4970 3852C 4970 3848 4982 3839 4998 3833C 5013 3826 5041 3807 5060 3790C 5079 3774 5098 3760 5103 3760C 5112 3760 5220 3653 5220 3645C 5220 3642 5230 3629 5243 3616C 5256 3603 5272 3579 5279 3561C 5287 3544 5296 3530 5301 3530C 5306 3530 5310 3521 5310 3511C 5310 3500 5313 3490 5318 3488C 5328 3484 5370 3358 5370 3332C 5370 3320 5375 3308 5380 3305C 5386 3301 5390 3233 5390 3135C 5390 3037 5386 2969 5380 2965C 5375 2962 5370 2946 5370 2931C 5370 2906 5360 2877 5316 2768C 5310 2752 5302 2740 5298 2740C 5293 2740 5290 2731 5290 2720C 5290 2709 5286 2700 5281 2700C 5276 2700 5268 2690 5264 2678C 5260 2665 5249 2648 5239 2639C 5228 2630 5220 2618 5220 2611C 5220 2605 5216 2600 5210 2600C 5205 2600 5200 2595 5200 2589C 5200 2575 5087 2465 5050 2443C 5034 2434 5020 2422 5020 2418C 5020 2414 5013 2410 5005 2410C 4997 2410 4990 2406 4990 2400C 4990 2395 4983 2390 4975 2390C 4967 2390 4960 2387 4960 2383C 4960 2378 4935 2364 4905 2350C 4875 2336 4850 2322 4850 2318C 4850 2313 4841 2310 4830 2310C 4819 2310 4810 2306 4810 2300C 4810 2295 4797 2290 4780 2290C 4764 2290 4750 2286 4750 2280C 4750 2275 4737 2270 4720 2270C 4704 2270 4690 2266 4690 2261C 4690 2256 4656 2249 4615 2245C 4574 2241 4537 2234 4534 2229C 4531 2224 4502 2220 4470 2220C 4437 2220 4399 2215 4385 2208L4385 2208L4360 2197L4360 2028C 4360 1923 4356 1860 4350 1860C 4345 1860 4340 1851 4340 1840C 4340 1829 4336 1820 4330 1820C 4325 1820 4320 1815 4320 1809C 4320 1794 4260 1737 4230 1724C 4169 1697 4128 1688 4117 1699C 4111 1705 4093 1710 4077 1710C 4039 1710 3940 1781 3940 1809C 3940 1814 3934 1820 3928 1822C 3918 1826 3914 1880 3910 2031L3910 2031L3905 2235L3828 2244C 3785 2248 3750 2256 3750 2261C 3750 2266 3737 2270 3720 2270C 3704 2270 3690 2275 3690 2280C 3690 2286 3677 2290 3660 2290C 3644 2290 3630 2295 3630 2300C 3630 2306 3621 2310 3610 2310C 3599 2310 3590 2315 3590 2320C 3590 2326 3581 2330 3570 2330C 3559 2330 3550 2335 3550 2340C 3550 2346 3541 2350 3530 2350C 3519 2350 3510 2353 3510 2358C 3510 2362 3495 2372 3478 2380C 3460 2387 3436 2402 3426 2412C 3415 2422 3400 2430 3393 2430C 3386 2430 3380 2434 3380 2438C 3380 2442 3366 2454 3349 2464C 3316 2484 3160 2632 3160 2645C 3160 2649 3147 2665 3130 2680C 3114 2695 3100 2715 3100 2723C 3100 2732 3096 2740 3091 2742C 3087 2743 3062 2790 3035 2845C 3009 2900 2984 2953 2979 2962C 2974 2972 2970 2989 2970 2999C 2970 3010 2966 3022 2960 3025C 2946 3034 2948 3176 2962 3203C 2982 3237 3053 3310 3067 3310C 3074 3310 3080 3315 3080 3320C 3080 3326 3115 3330 3165 3330C 3215 3330 3250 3326 3250 3320C 3250 3315 3257 3310 3266 3310C 3290 3310 3380 3210 3380 3183C 3380 3171 3385 3160 3390 3160C 3396 3160 3400 3147 3400 3130C 3400 3114 3405 3100 3410 3100C 3416 3100 3420 3091 3420 3081C 3420 3058 3460 2980 3472 2980C 3476 2980 3480 2973 3480 2965C 3480 2957 3485 2950 3490 2950C 3496 2950 3500 2945 3500 2940C 3500 2928 3594 2834 3636 2804C 3681 2772 3727 2750 3750 2750C 3761 2750 3770 2746 3770 2740C 3770 2735 3779 2730 3790 2730C 3801 2730 3810 2726 3810 2720C 3810 2715 3833 2710 3860 2710L3860 2710L3910 2710L3910 3201C 3910 3658 3909 3694 3893 3706C 3883 3713 3863 3720 3848 3720C 3833 3720 3818 3725 3815 3730C 3812 3736 3796 3740 3780 3740C 3764 3740 3748 3745 3745 3750C 3742 3756 3728 3760 3715 3760C 3702 3760 3688 3765 3685 3770C 3682 3776 3668 3780 3655 3780C 3642 3780 3628 3785 3625 3790C 3622 3796 3608 3800 3594 3800C 3581 3800 3570 3805 3570 3810C 3570 3816 3561 3820 3550 3820C 3539 3820 3530 3825 3530 3830C 3530 3836 3522 3840 3513 3840C 3503 3840 3466 3856 3430 3875C 3395 3894 3361 3910 3355 3910C 3349 3910 3338 3919 3330 3930C 3322 3941 3310 3950 3303 3950C 3291 3950 3228 4003 3186 4048C 3175 4061 3146 4092 3123 4116C 3099 4140 3080 4164 3080 4170C 3080 4175 3068 4204 3053 4232C 3012 4313 3010 4318 3010 4340C 3010 4351 3006 4360 3001 4360C 2987 4360 2978 4444 2977 4585C 2977 4748 2993 4823 3055 4945C 3068 4973 3080 5001 3080 5008C 3080 5014 3085 5020 3090 5020C 3096 5020 3100 5027 3100 5035C 3100 5043 3105 5050 3110 5050C 3116 5050 3120 5057 3120 5065C 3120 5073 3125 5080 3130 5080C 3136 5080 3140 5085 3140 5090C 3140 5105 3284 5247 3307 5254C 3318 5258 3335 5269 3345 5280C 3355 5291 3368 5300 3373 5300C 3379 5300 3391 5306 3399 5314C 3421 5334 3556 5400 3575 5400C 3583 5400 3590 5405 3590 5410C 3590 5416 3601 5420 3614 5420C 3628 5420 3642 5425 3645 5430C 3648 5436 3662 5440 3675 5440C 3688 5440 3702 5445 3705 5450C 3708 5456 3726 5460 3745 5460C 3764 5460 3782 5465 3785 5470C 3788 5476 3810 5480 3834 5480C 3908 5480 3908 5481 3912 5689C 3914 5825 3918 5874 3928 5878C 3934 5880 3940 5886 3940 5892C 3940 5912 4033 5990 4057 5990C 4069 5990 4080 5995 4080 6000C 4080 6006 4105 6010 4135 6010C 4165 6010 4190 6006 4190 6000z" stroke="none" fill="#000000" fill-rule="nonzero" />
        <path d="M3825 5018C 3809 5012 3787 5004 3778 4999C 3768 4994 3754 4990 3747 4990C 3739 4990 3704 4975 3669 4958C 3602 4924 3480 4812 3480 4785C 3480 4777 3477 4770 3473 4770C 3461 4770 3440 4719 3440 4693C 3440 4680 3436 4670 3430 4670C 3424 4670 3420 4633 3420 4580C 3420 4527 3424 4490 3430 4490C 3436 4490 3440 4477 3440 4462C 3440 4446 3448 4428 3460 4420C 3471 4412 3480 4400 3480 4392C 3480 4375 3505 4350 3522 4350C 3530 4350 3542 4341 3550 4330C 3558 4319 3571 4310 3580 4310C 3589 4310 3602 4301 3610 4290C 3618 4279 3632 4270 3642 4270C 3651 4270 3662 4266 3665 4260C 3668 4255 3680 4250 3691 4250C 3701 4250 3710 4246 3710 4240C 3710 4235 3719 4230 3730 4230C 3741 4230 3758 4226 3768 4221C 3820 4194 3840 4189 3871 4192L3871 4192L3905 4195L3905 4610L3905 5025L3880 5027C 3866 5028 3842 5024 3825 5018z" stroke="none" fill="#000000" fill-rule="nonzero" />
        <path d="M4360 3125L4360 2670L4425 2670C 4462 2670 4490 2674 4490 2680C 4490 2686 4508 2690 4530 2690C 4552 2690 4570 2695 4570 2700C 4570 2706 4584 2710 4600 2710C 4617 2710 4630 2715 4630 2720C 4630 2726 4641 2730 4655 2730C 4669 2730 4680 2735 4680 2740C 4680 2746 4688 2750 4698 2750C 4709 2750 4727 2759 4740 2770C 4753 2781 4767 2790 4772 2790C 4786 2790 4880 2891 4880 2906C 4880 2914 4885 2920 4890 2920C 4896 2920 4900 2929 4900 2940C 4900 2951 4905 2960 4910 2960C 4916 2960 4920 2974 4920 2990C 4920 3007 4925 3020 4930 3020C 4936 3020 4940 3065 4940 3135C 4940 3205 4936 3250 4930 3250C 4925 3250 4920 3259 4920 3270C 4920 3300 4882 3360 4837 3402C 4814 3423 4792 3440 4788 3440C 4784 3440 4775 3446 4768 3453C 4744 3474 4714 3488 4676 3495C 4656 3499 4640 3506 4640 3511C 4640 3516 4629 3520 4615 3520C 4601 3520 4590 3525 4590 3530C 4590 3536 4577 3540 4560 3540C 4544 3540 4530 3545 4530 3550C 4530 3556 4514 3560 4495 3560C 4476 3560 4460 3565 4460 3570C 4460 3576 4438 3580 4410 3580L4410 3580L4360 3580L4360 3125z" stroke="none" fill="#000000" fill-rule="nonzero" />
	</g>
</g>
</svg>