<?xml version="1.0" standalone="no"?>
<!DOCTYPE svg PUBLIC "-//W3C//DTD SVG 1.0//EN" "http://www.w3.org/TR/2001/REC-SVG-20010904/DTD/svg10.dtd">
<svg xmlns="http://www.w3.org/2000/svg" xmlns:xlink="http://www.w3.org/1999/xlink" id="body_8" width="1000" height="1000">
    <path d="M321.7 108.4C300.8 112.5 277.7 121.7 260.7 133 243.4 144.7 220.1 168.9 210.9 185.4 204.5 196.9 203.9 197.5 197.7 196.5 186.3 194.7 156.1 199 139.5 204.9 74.4 227.3 31.3 288.1 31.3 357.4 31.3 398.4 45.1 433 73.2 462.7 82.4 472.3 89.8 481.1 89.8 482.2 89.8 483.4 82.4 512.5 73.4 547.1L56.8 609.8 67.4 634C73.2 647.3 77.5 659.6 76.8 661.3 76.2 662.9 67.8 669.5 58.2 676 48.6 682.4 40.2 689.1 39.6 690.6 39.1 692.2 42.6 702.1 47.7 712.9 52.5 723.4 56.2 733.2 55.7 734.8 55.1 736.1 46.7 742.4 37.3 748.6 27.7 754.9 19.3 761.3 18.8 763.1 18 764.6 21.5 774.4 26.4 784.8 31.6 795.7 34.8 804.9 34.2 807 33.4 809 26 814.3 17.4 818.8 7.8 824 1.6 828.7 0.8 831.1 0.2 833.8 5.3 844.7 16 864.3 29.7 888.7 33.2 893.6 37.1 894.1 42.2 894.7 99 863.1 105.5 856.1 107.4 854.1 129.5 780.9 156.8 686.7 183.4 595.5 206.1 520.1 207.4 519.1 208.8 518.4 211.9 517.6 214.5 517.6 222.5 517.6 248.6 507.8 261.7 500 286.7 485.4 308.4 463.9 323.6 438.3 333.8 421.5 333.8 420.7 321.9 419.3 302.9 417 276.4 406.4 257.8 393.9 246.3 385.9 244.3 383.2 244.1 374.6 244.1 369.1 245.3 366.6 249.2 363.5 257.4 357 266.4 358.2 280.5 367.4 295.1 377 315.8 384.4 333 386.5 345.7 387.9 345.9 387.9 347.3 383 348 380.3 348.6 366 348.4 351.6 348.4 327.1 347.9 323.8 342 306.6 338.7 296.5 332.2 282 327.7 274.6 311.3 246.9 278.1 218.4 250.8 208.6 243.9 206.1 238.3 203.3 238.3 202.5 238.3 198.8 250.6 183.6 262.5 172.5 276.6 159.2 300 146.5 319.3 141.6 343.9 135.4 380.9 139.5 403.7 151 427.9 163.3 448 183.2 460.9 207.2L466.8 218.2 455.1 222.5C440 227.9 422.1 244.3 415 258.8 407 274.8 406.2 286.9 410.4 331.1 412.3 352.5 413.7 370.1 413.5 370.3 413.3 370.5 408.6 372.9 403.1 375.6 391.6 381.4 372.5 386.7 363.1 386.7 350.8 386.7 348.8 388.3 342.2 402.9 338.7 410.7 335.9 417.8 335.9 418.7 335.9 419.7 346.1 419.9 359 419.3 380.1 418.6 396.5 414.8 414.3 407.4 416.8 406.3 417.6 411.5 420.5 446.7 423.6 484.2 424.4 488.3 429.7 499.2 435 510 451.6 527.1 583.8 658 727.1 800 732.2 804.7 739.3 804.7 747.7 804.7 736.7 815 902.7 651.2 1006.6 548.8 1004.9 550.6 997.3 540 994.3 536.1 870.9 413.1 762.7 306.4 712.7 257 700.2 245.9 691 241.4 678.7 235.7 674.2 235.2 561.7 225 515.8 220.9 502.9 219.1 501.8 216.8 501 215.2 497.1 206.8 493.2 198.2 474 155.9 432 121.7 386.1 110.5 366.8 105.9 339.8 105.1 321.7 108.4ZM221.3 202.7C228.5 205.9 234.8 208.8 235.4 209.2 235.7 209.8 234.6 214.5 232.6 219.9 225.4 239.3 225.4 239.3 237.1 245.9 255.7 256.3 265.4 273.6 265.6 296.1 265.6 329.7 239.3 353.3 204.3 351.2 171.7 349 149.4 325 149.6 292 149.8 270.7 162.1 252.3 182.6 243 192 238.7 192.8 237.7 194.9 228.9 197.7 216.8 204.9 197.3 206.8 197.3 207.4 197.3 214.1 199.8 221.3 202.7ZM703.3 406.8C707.6 410.2 710.9 416.8 710.9 422.1 710.9 425.2 698.6 438.9 668.6 469.3 645.1 492.8 624.2 512.9 622.1 514.1 611.3 520.1 597.7 512.3 597.7 500.2 597.7 493.7 600.8 490 642.2 448.8 683.2 407.6 687.1 404.3 693.4 404.3 697.1 404.3 701.6 405.5 703.3 406.8ZM800.4 503.1C802.9 505.9 804.7 510.5 804.7 514.1 804.7 519.3 800.4 524.6 774 551.4 730.1 595.7 714.3 609.4 706.8 609.4 698.4 609.4 691.4 601.8 691.4 592.6 691.4 585.7 693.6 583 724.2 552.1 742.2 534 762.9 513.9 770.3 507.4 782.2 497.1 784.4 495.9 789.8 496.9 793.2 497.5 797.9 500.2 800.4 503.1ZM196.1 271.5C188.5 274.4 181.6 284.8 181.6 293.2 181.6 304.7 186.3 312.3 196.5 316.6 226 329.7 245.5 287.3 216.8 272.5 210.5 269.3 202.5 268.9 196.1 271.5Z" />
</svg>