<?xml version="1.0" standalone="no"?>
<!DOCTYPE svg PUBLIC "-//W3C//DTD SVG 1.0//EN" "http://www.w3.org/TR/2001/REC-SVG-20010904/DTD/svg10.dtd">
<svg xmlns="http://www.w3.org/2000/svg" xmlns:xlink="http://www.w3.org/1999/xlink" id="body_1" width="70" height="70">

<g transform="matrix(2.9166667 0 0 2.9166667 0 0)">
    <path d="M0 0L24 0L24 24L0 24z" stroke="none" fill="none" />
    <path transform="matrix(1 0 0 1 2 5)"  d="M0 3C 0 1.3431456 1.3431456 0 3 0L3 0L5 0C 6.6568546 0 8 1.3431456 8 3L8 3L8 4C 8 10 5.972 14 1 14C 5 10.038 4 8 4 8L4 8L3 8C 1.3431456 8 0 6.6568546 0 5L0 5L0 3z" stroke="#000000" stroke-width="1.5" fill="none" />
    <path transform="matrix(1 0 0 1 14 5)"  d="M0 3C 0 1.3431456 1.3431456 0 3 0L3 0L5 0C 6.6568546 0 8 1.3431456 8 3L8 3L8 4C 8 10 5.972 14 1 14C 5 10.038 4 8 4 8L4 8L3 8C 1.3431456 8 0 6.6568546 0 5L0 5L0 3z" stroke="#000000" stroke-width="1.5" fill="none" />
</g>
</svg>