<?xml version="1.0" standalone="no"?>
<!DOCTYPE svg PUBLIC "-//W3C//DTD SVG 1.0//EN" "http://www.w3.org/TR/2001/REC-SVG-20010904/DTD/svg10.dtd">
<svg xmlns="http://www.w3.org/2000/svg" xmlns:xlink="http://www.w3.org/1999/xlink" id="body_1" width="50" height="50">

<g transform="matrix(0.09945993 0 0 0.09945993 5.0082057E-05 -0)">
	<g>
        <path d="M449.958 485.949L417.583 157.992C 416.901 151.069 411.075 145.797 404.118 145.797L404.118 145.797L343.573 145.797L343.573 92.289C 343.573 41.394 302.173 0 251.292 0C 200.405 0 159.01001 41.395 159.01001 92.289L159.01001 92.289L159.01001 145.798L98.458 145.798C 91.502 145.798 85.682 151.07 84.994 157.99301L84.994 157.99301L52.433 487.852C 52.056 491.65698 53.305 495.438 55.869 498.26398C 58.432 501.10397 62.078 502.71497 65.895996 502.71497L65.895996 502.71497L436.688 502.71497C 436.728 502.71497 436.77298 502.71497 436.81998 502.71497C 444.29297 502.71497 450.34897 496.65295 450.34897 489.18796C 450.348 488.064 450.216 486.982 449.958 485.949zM186.068 92.289C 186.068 56.326 215.327 27.058998 251.29099 27.058998C 287.25497 27.058998 316.51398 56.326996 316.51398 92.289L316.51398 92.289L316.51398 145.798L186.068 145.798L186.068 92.289zM110.718 172.857L159.009 172.857L159.009 200.233C 159.009 207.697 165.06801 213.761 172.539 213.761C 180.011 213.761 186.06801 207.697 186.06801 200.233L186.06801 200.233L186.06801 172.857L316.514 172.857L316.514 200.233C 316.514 207.697 322.57202 213.761 330.042 213.761C 337.51398 213.761 343.57098 207.697 343.57098 200.233L343.57098 200.233L343.57098 172.857L391.857 172.857L416.477 422.227L86.098 422.227L110.718 172.857zM80.825 475.66L83.42799 449.28702L419.15497 449.28702L421.75797 475.66L80.825 475.66z" stroke="none" fill="#000000" fill-rule="nonzero" />
	</g>
</g>
</svg>