<?xml version="1.0" standalone="no"?>
<!DOCTYPE svg PUBLIC "-//W3C//DTD SVG 1.0//EN" "http://www.w3.org/TR/2001/REC-SVG-20010904/DTD/svg10.dtd">
<svg xmlns="http://www.w3.org/2000/svg" xmlns:xlink="http://www.w3.org/1999/xlink" id="body_1" width="50" height="38">

<g transform="matrix(0.078097865 0 0 0.078097865 5.9999995 -0)">
	<g>
        <path d="M146.069 320.369L414.169 320.369C 444.569 320.369 469.36902 295.569 469.36902 265.16898L469.36902 265.16898L469.36902 152.36897C 469.36902 152.26897 469.36902 152.06897 469.36902 151.96898C 469.36902 151.66898 469.36902 151.46898 469.36902 151.16898C 469.36902 150.96898 469.36902 150.76898 469.269 150.56897C 469.269 150.36897 469.169 150.06897 469.169 149.86897C 469.169 149.66898 469.069 149.46898 469.069 149.26897C 468.969 149.06897 468.969 148.86897 468.869 148.56897C 468.76898 148.36897 468.76898 148.16898 468.66898 147.96896C 468.56897 147.76897 468.56897 147.56897 468.46896 147.36896C 468.36896 147.16896 468.26895 146.96896 468.16898 146.66896C 468.06897 146.46896 467.96896 146.26897 467.869 146.16896C 467.76898 145.96896 467.66898 145.76897 467.569 145.56895C 467.469 145.36896 467.369 145.26895 467.269 145.06895C 467.169 144.86896 466.96902 144.66896 466.86902 144.46895C 466.769 144.26895 466.669 144.16895 466.46902 143.96895C 466.36902 143.76895 466.16904 143.66895 466.06903 143.46895C 465.96902 143.26895 465.76904 143.16895 465.66904 142.96895C 465.56903 142.76895 465.36905 142.66895 465.26904 142.56895C 465.06903 142.36896 464.96906 142.26895 464.76904 142.06895C 464.56903 141.96895 464.46906 141.76895 464.26904 141.66896C 464.06903 141.56895 463.86905 141.36896 463.66904 141.26897C 463.46902 141.16896 463.36905 141.06897 463.16904 140.96896C 462.96902 140.86896 462.76904 140.76897 462.56903 140.56897C 462.36902 140.46896 462.16904 140.36897 461.96902 140.26897C 461.769 140.16896 461.56903 140.06897 461.36902 139.96896C 461.169 139.86896 460.96902 139.76897 460.769 139.66896C 460.569 139.56895 460.36902 139.56895 460.169 139.46896C 459.969 139.36896 459.669 139.26897 459.469 139.26897C 459.26898 139.26897 459.069 139.16896 458.969 139.16896C 458.669 139.06895 458.469 139.06895 458.169 139.06895C 458.069 139.06895 457.969 138.96895 457.769 138.96895L457.769 138.96895L117.969025 92.06895L117.969025 44.668945C 117.969025 44.168945 117.969025 43.668945 117.869026 43.268944C 117.869026 43.168945 117.869026 43.068943 117.76903 42.868942C 117.76903 42.568943 117.66903 42.268944 117.66903 41.96894C 117.56903 41.66894 117.56903 41.46894 117.46903 41.16894C 117.46903 40.96894 117.36903 40.868942 117.36903 40.66894C 117.269035 40.368942 117.16904 40.068943 117.06903 39.76894C 117.06903 39.66894 116.96903 39.46894 116.96903 39.36894C 116.86903 39.06894 116.769035 38.86894 116.56903 38.56894C 116.46903 38.46894 116.46903 38.26894 116.36903 38.168938C 116.269035 37.968937 116.16904 37.768936 115.96903 37.56894C 115.86903 37.36894 115.769035 37.26894 115.66903 37.06894C 115.56902 36.86894 115.46903 36.76894 115.369026 36.56894C 115.26902 36.36894 115.06902 36.168938 114.969025 35.96894C 114.869026 35.868942 114.76903 35.76894 114.66902 35.66894C 114.469025 35.46894 114.26902 35.26894 114.06902 35.068943C 113.969025 34.968945 113.869026 34.868942 113.76902 34.768944C 113.56902 34.568943 113.36902 34.368942 113.06902 34.168945C 112.969025 34.068947 112.76902 33.968945 112.66902 33.868946C 112.469025 33.668945 112.26902 33.568947 112.06902 33.368946C 111.76902 33.168945 111.469025 32.968945 111.26902 32.868946C 111.16902 32.768948 111.06902 32.768948 110.96902 32.668945C 110.569016 32.468945 110.069016 32.268944 109.669014 32.068947L109.669014 32.068947L35.969017 1.0689468C 29.069017 -1.8310533 21.169018 1.3689468 18.269016 8.268947C 15.369015 15.168946 18.569016 23.068947 25.469017 25.968948L25.469017 25.968948L90.86902 53.568947L90.86902 114.76895L90.86902 124.46895L90.86902 198.86896L90.86902 265.36896L90.86902 349.36896C 90.86902 377.36896 111.86902 400.56897 138.96902 404.06897C 134.06903 412.26898 131.16902 421.86896 131.16902 432.06897C 131.16902 462.16898 155.66902 486.56897 185.66902 486.56897C 215.66902 486.56897 240.16902 462.06897 240.16902 432.06897C 240.16902 422.06897 237.46902 412.56897 232.66902 404.56897L232.66902 404.56897L354.06903 404.56897C 349.26904 412.66898 346.56903 422.06897 346.56903 432.06897C 346.56903 462.16898 371.06903 486.56897 401.06903 486.56897C 431.06903 486.56897 455.56903 462.06897 455.56903 432.06897C 455.56903 402.06897 431.06903 377.56897 401.06903 377.56897L401.06903 377.56897L146.06903 377.56897C 130.46902 377.56897 117.86903 364.86896 117.86903 349.36896L117.86903 349.36896L117.86903 312.76895C 126.069 317.569 135.769 320.369 146.069 320.369zM213.269 431.969C 213.269 447.169 200.869 459.469 185.769 459.469C 170.66899 459.469 158.269 447.069 158.269 431.969C 158.269 416.869 170.66899 404.469 185.769 404.469C 200.869 404.469 213.269 416.769 213.269 431.969zM428.669 431.969C 428.669 447.169 416.269 459.469 401.169 459.469C 386.069 459.469 373.669 447.069 373.669 431.969C 373.669 416.869 386.069 404.469 401.169 404.469C 416.269 404.469 428.669 416.769 428.669 431.969zM414.169 293.369L146.069 293.369C 130.469 293.369 117.869 280.66898 117.869 265.16898L117.869 265.16898L117.869 198.66898L117.869 124.268974L117.869 119.268974L442.36902 163.96898L442.36902 265.06897C 442.369 280.769 429.669 293.369 414.169 293.369z" stroke="none" fill="#000000" fill-rule="nonzero" />
	</g>
</g>
</svg>