<?xml version="1.0" standalone="no"?>
<!DOCTYPE svg PUBLIC "-//W3C//DTD SVG 1.0//EN" "http://www.w3.org/TR/2001/REC-SVG-20010904/DTD/svg10.dtd">
<svg xmlns="http://www.w3.org/2000/svg" xmlns:xlink="http://www.w3.org/1999/xlink" id="body_1" width="50" height="38">

<g transform="matrix(0.079166666 0 0 0.079166666 5.999999 -0)">
	<g>
        <path d="M307.677 101.816L307.677 66.504C 307.677 54.171997 297.644 44.14 285.313 44.14L285.313 44.14L194.68799 44.14C 182.35599 44.14 172.32399 54.173 172.32399 66.504L172.32399 66.504L172.32399 101.817L0 101.817L0 435.86L480 435.86L480 101.816L307.677 101.816zM379.949 328.531L325.339 304.46802L365.978 212.23401L420.588 236.296L379.949 328.531zM355.74 185.868L298.973 314.707L373.79898 347.676L373.79898 415.861L106.201 415.861L106.201 121.816L373.79898 121.816L373.79898 193.824L355.74 185.868zM192.323 66.504C 192.323 65.2 193.384 64.14 194.687 64.14L194.687 64.14L285.312 64.14C 286.616 64.14 287.67603 65.201 287.67603 66.504L287.67603 66.504L287.67603 101.817L192.32202 101.817L192.32202 66.504zM20 121.816L86.201 121.816L86.201 415.86L20 415.86L20 121.816zM460 415.86L393.799 415.86L393.799 346.69998L446.95502 226.05698L393.799 202.63597L393.799 121.81597L460 121.81597L460 415.86z" stroke="none" fill="#000000" fill-rule="nonzero" />
        <path d="M128.972 271.254L231.09 315.38098L259.785 248.97498L157.667 204.84798L128.972 271.254zM233.492 259.401L220.664 289.089L155.265 260.82898L168.093 231.14098L233.492 259.401z" stroke="none" fill="#000000" fill-rule="nonzero" />
	</g>
</g>
</svg>