<?xml version="1.0" standalone="no"?>
<!DOCTYPE svg PUBLIC "-//W3C//DTD SVG 1.0//EN" "http://www.w3.org/TR/2001/REC-SVG-20010904/DTD/svg10.dtd">
<svg xmlns="http://www.w3.org/2000/svg" xmlns:xlink="http://www.w3.org/1999/xlink" id="body_1" width="50" height="50">

<g transform="matrix(0.09765625 0 0 0.09765625 0 0)">
	<g>
        <path d="M34.5 -0.5C 56.8333 -0.5 79.1667 -0.5 101.5 -0.5C 122.818 5.31865 136.318 18.9853 142 40.5C 143.164 49.4744 143.998 58.4744 144.5 67.5C 244.501 67.3333 344.501 67.5 444.5 68C 466.321 72.148 479.821 84.9813 485 106.5C 485.667 144.5 485.667 182.5 485 220.5C 479.305 245.527 463.805 260.361 438.5 265C 348.245 281.585 258.078 298.418 168 315.5C 167.738 326.282 168.738 336.949 171 347.5C 173.562 353.061 177.728 356.894 183.5 359C 271.833 359.333 360.167 359.667 448.5 360C 459.188 363.193 463.355 370.36 461 381.5C 459.5 387 456 390.5 450.5 392C 360.167 392.667 269.833 392.667 179.5 392C 155.092 386.926 140.925 372.093 137 347.5C 127.906 246.802 118.573 146.135 109 45.5C 105.952 38.0526 100.452 33.5526 92.5 32C 72.4355 31.9645 52.4355 31.2978 32.5 30C 25.0088 23.0062 23.5088 14.8395 28 5.5C 30.0627 3.26589 32.2294 1.26589 34.5 -0.5z" stroke="none" fill="#000000" fill-rule="nonzero" fill-opacity="0.9882353" />
	</g>
	<g>
        <path d="M221.5 511.5C 214.5 511.5 207.5 511.5 200.5 511.5C 165.183 499.879 152.017 475.879 161 439.5C 176.384 409.396 200.217 399.563 232.5 410C 255.957 422.409 266.124 441.909 263 468.5C 257.431 490.901 243.597 505.235 221.5 511.5z" stroke="none" fill="#000000" fill-rule="nonzero" fill-opacity="0.9764706" />
	</g>
	<g>
        <path d="M397.5 511.5C 390.5 511.5 383.5 511.5 376.5 511.5C 350.4 503.879 336.067 486.379 333.5 459C 336.688 426.479 354.521 408.646 387 405.5C 416.575 407.742 434.242 423.409 440 452.5C 440.969 483.274 426.803 502.941 397.5 511.5z" stroke="none" fill="#000000" fill-rule="nonzero" fill-opacity="0.9764706" />
	</g>
</g>
</svg>